<?xml version="1.0" encoding="UTF-8"?>
<svg viewBox="0 0 100 100" version="1.1" xmlns="http://www.w3.org/2000/svg" xmlns:xlink="http://www.w3.org/1999/xlink">
    <title>Bettertokens</title>
    <g id="Bettertokens" stroke="none" stroke-width="1" fill="none" fill-rule="evenodd">
        <circle id="zone" fill="#FFFFFF" fill-rule="nonzero" cx="50" cy="50" r="50"></circle>
        <path d="M18.4410692,40.2514589 L21.516234,40.2514589 C22.0577752,40.2514589 22.5026059,40.1258368 22.8507395,39.8745889 C23.1988731,39.6233409 23.3729374,39.2150691 23.3729374,38.6497613 C23.3729374,38.3357013 23.3149159,38.0781761 23.1988714,37.8771777 C23.0828269,37.6761794 22.9281031,37.5191518 22.7346956,37.4060902 C22.541288,37.2930286 22.3188727,37.2145148 22.0674428,37.1705464 C21.816013,37.126578 21.5549167,37.1045942 21.2841461,37.1045942 L18.4410692,37.1045942 L18.4410692,40.2514589 Z M15.4045857,34.805687 L21.9030472,34.805687 C22.5606329,34.805687 23.1601874,34.8622169 23.7017286,34.9752785 C24.2432697,35.0883401 24.7074409,35.2736327 25.094256,35.5311618 C25.4810711,35.7886909 25.7808483,36.1310111 25.9935966,36.5581326 C26.2063449,36.9852541 26.3127175,37.5128669 26.3127175,38.1409867 C26.3127175,38.8193562 26.1547704,39.3846556 25.8388714,39.8369019 C25.5229724,40.2891481 25.0555778,40.6597333 24.4366736,40.9486684 C25.2876669,41.187354 25.9226788,41.6050474 26.3417286,42.2017613 C26.7607783,42.7984752 26.9703,43.5176616 26.9703,44.3593422 C26.9703,45.0377117 26.8349167,45.6249949 26.5641461,46.1212095 C26.2933755,46.6174242 25.9291301,47.0225554 25.4713989,47.3366154 C25.0136676,47.6506753 24.491475,47.8830762 23.9048055,48.0338249 C23.3181359,48.1845737 22.715358,48.2599469 22.0964538,48.2599469 L15.4045857,48.2599469 L15.4045857,34.805687 Z M18.4410692,45.9610398 L21.6903,45.9610398 C21.9868582,45.9610398 22.2705184,45.9327748 22.541289,45.876244 C22.8120596,45.8197132 23.050592,45.7254967 23.2568934,45.5935915 C23.4631947,45.4616863 23.6275888,45.2826749 23.7500802,45.0565517 C23.8725717,44.8304286 23.9338165,44.5414978 23.9338165,44.1897506 C23.9338165,43.4988189 23.733965,43.0057521 23.334256,42.7105358 C22.9345471,42.4153195 22.4059077,42.2677136 21.7483219,42.2677136 L18.4410692,42.2677136 L18.4410692,45.9610398 Z M35.5653936,42.3430875 C35.4364551,41.6647181 35.2075929,41.1496675 34.8788001,40.7979204 C34.5500072,40.4461733 34.0503786,40.2703024 33.379899,40.2703024 C32.9415085,40.2703024 32.5772631,40.3425351 32.2871518,40.4870027 C31.9970404,40.6314702 31.7649548,40.8104817 31.590888,41.0240424 C31.4168212,41.2376032 31.2943316,41.4637229 31.2234155,41.7024085 C31.1524994,41.941094 31.110595,42.1546516 31.0977013,42.3430875 L35.5653936,42.3430875 Z M31.0977013,44.0390027 C31.1363828,44.9058081 31.3620215,45.5339184 31.7746243,45.9233528 C32.1872271,46.3127871 32.7803347,46.5075013 33.553965,46.5075013 C34.1084,46.5075013 34.5854648,46.3724576 34.9851737,46.102366 C35.3848827,45.8322745 35.629862,45.5464843 35.7201188,45.2449867 L38.1377013,45.2449867 C37.7508861,46.4132897 37.1577785,47.2486765 36.3583605,47.7511724 C35.5589426,48.2536683 34.5919193,48.5049125 33.4572616,48.5049125 C32.6707376,48.5049125 31.9615871,48.3824309 31.3297891,48.1374642 C30.6979911,47.8924975 30.1629049,47.5438961 29.7245144,47.0916499 C29.2861239,46.6394036 28.9476658,46.0992286 28.7091298,45.4711088 C28.4705938,44.8429889 28.3513276,44.1520674 28.3513276,43.3983236 C28.3513276,42.6697046 28.4738172,41.9913453 28.7188001,41.3632255 C28.9637831,40.7351056 29.3119114,40.1917901 29.7631957,39.7332626 C30.21448,39.2747351 30.7527897,38.9135716 31.3781408,38.6497613 C32.0034919,38.3859509 32.6965253,38.2540477 33.4572616,38.2540477 C34.3082549,38.2540477 35.0496395,38.4142159 35.6814375,38.734557 C36.3132355,39.0548981 36.8322046,39.4851538 37.2383605,40.0253369 C37.6445164,40.56552 37.9378468,41.1810681 38.1183605,41.872 C38.2988743,42.5629319 38.3633424,43.2852588 38.3117671,44.0390027 L31.0977013,44.0390027 Z M43.5222453,38.5178568 L43.5222453,35.5971141 L40.7758717,35.5971141 L40.7758717,38.5178568 L39.112575,38.5178568 L39.112575,40.3079894 L40.7758717,40.3079894 L40.7758717,46.0552573 C40.7758717,46.5451908 40.8596803,46.9409003 41.0273003,47.2423979 C41.1949202,47.5438955 41.4237823,47.7762963 41.7138937,47.9396075 C42.004005,48.1029186 42.3392398,48.2128379 42.719608,48.2693687 C43.0999761,48.3258995 43.5029025,48.3541644 43.9283992,48.3541644 C44.1991697,48.3541644 44.4763831,48.3478833 44.7600475,48.3353209 C45.0437119,48.3227586 45.3015848,48.2976341 45.5336739,48.2599469 L45.5336739,46.1871618 C45.4047355,46.2122866 45.2693523,46.2311299 45.1275201,46.2436923 C44.9856878,46.2562547 44.837411,46.2625358 44.6826849,46.2625358 C44.2185067,46.2625358 43.9090593,46.1871626 43.7543332,46.0364138 C43.5996071,45.885665 43.5222453,45.584172 43.5222453,45.1319257 L43.5222453,40.3079894 L45.5336739,40.3079894 L45.5336739,38.5178568 L43.5222453,38.5178568 Z M50.4347015,38.5178568 L50.4347015,35.5971141 L47.6883279,35.5971141 L47.6883279,38.5178568 L46.0250312,38.5178568 L46.0250312,40.3079894 L47.6883279,40.3079894 L47.6883279,46.0552573 C47.6883279,46.5451908 47.7721365,46.9409003 47.9397565,47.2423979 C48.1073763,47.5438955 48.3362385,47.7762963 48.6263499,47.9396075 C48.9164612,48.1029186 49.2516959,48.2128379 49.6320642,48.2693687 C50.0124323,48.3258995 50.4153587,48.3541644 50.8408554,48.3541644 C51.1116259,48.3541644 51.3888393,48.3478833 51.6725037,48.3353209 C51.9561681,48.3227586 52.214041,48.2976341 52.4461301,48.2599469 L52.4461301,46.1871618 C52.3171917,46.2122866 52.1818085,46.2311299 52.0399762,46.2436923 C51.898144,46.2562547 51.7498672,46.2625358 51.5951411,46.2625358 C51.130963,46.2625358 50.8215155,46.1871626 50.6667894,46.0364138 C50.5120633,45.885665 50.4347015,45.584172 50.4347015,45.1319257 L50.4347015,40.3079894 L52.4461301,40.3079894 L52.4461301,38.5178568 L50.4347015,38.5178568 Z M60.5963885,42.3430875 C60.4674501,41.6647181 60.2385879,41.1496675 59.909795,40.7979204 C59.5810023,40.4461733 59.0813735,40.2703024 58.4108939,40.2703024 C57.9725035,40.2703024 57.6082581,40.3425351 57.3181467,40.4870027 C57.0280354,40.6314702 56.7959498,40.8104817 56.621883,41.0240424 C56.4478161,41.2376032 56.3253265,41.4637229 56.2544104,41.7024085 C56.1834944,41.941094 56.14159,42.1546516 56.1286962,42.3430875 L60.5963885,42.3430875 Z M56.1286962,44.0390027 C56.1673777,44.9058081 56.3930165,45.5339184 56.8056193,45.9233528 C57.218222,46.3127871 57.8113296,46.5075013 58.5849599,46.5075013 C59.139395,46.5075013 59.6164597,46.3724576 60.0161687,46.102366 C60.4158777,45.8322745 60.6608569,45.5464843 60.7511138,45.2449867 L63.1686962,45.2449867 C62.781881,46.4132897 62.1887734,47.2486765 61.3893555,47.7511724 C60.5899376,48.2536683 59.6229143,48.5049125 58.4882566,48.5049125 C57.7017325,48.5049125 56.9925821,48.3824309 56.3607841,48.1374642 C55.7289861,47.8924975 55.1938998,47.5438961 54.7555093,47.0916499 C54.3171189,46.6394036 53.9786608,46.0992286 53.7401247,45.4711088 C53.5015888,44.8429889 53.3823225,44.1520674 53.3823225,43.3983236 C53.3823225,42.6697046 53.5048121,41.9913453 53.749795,41.3632255 C53.994778,40.7351056 54.3429063,40.1917901 54.7941907,39.7332626 C55.245475,39.2747351 55.7837846,38.9135716 56.4091358,38.6497613 C57.0344868,38.3859509 57.7275202,38.2540477 58.4882566,38.2540477 C59.3392499,38.2540477 60.0806344,38.4142159 60.7124324,38.734557 C61.3442305,39.0548981 61.8631996,39.4851538 62.2693555,40.0253369 C62.6755114,40.56552 62.9688418,41.1810681 63.1493555,41.872 C63.3298693,42.5629319 63.3943375,43.2852588 63.3427621,44.0390027 L56.1286962,44.0390027 Z M65.0719216,38.5178568 L65.0719216,48.2599469 L67.8182952,48.2599469 L67.8182952,43.8694111 C67.8182952,43.4297273 67.8634227,43.0214554 67.9536798,42.6445835 C68.0439369,42.2677117 68.195437,41.9379537 68.4081854,41.6552997 C68.6209337,41.3726458 68.9013706,41.1496666 69.249504,40.9863554 C69.5976374,40.8230443 70.0231278,40.7413899 70.5259875,40.7413899 C70.6936073,40.7413899 70.8676716,40.7508116 71.0481854,40.7696552 C71.228699,40.7884988 71.3834227,40.8104826 71.5123612,40.8356074 L71.5123612,38.3482653 C71.2931661,38.2854533 71.0933144,38.2540477 70.9128007,38.2540477 C70.5646672,38.2540477 70.2294325,38.3042966 69.9070864,38.4047958 C69.5847403,38.5052949 69.2817397,38.6466198 68.9980754,38.8287745 C68.7144112,39.0109293 68.4629847,39.2307679 68.2437897,39.4882971 C68.0245947,39.7458262 67.8505304,40.0253353 67.721592,40.3268329 L67.6829106,40.3268329 L67.6829106,38.5178568 L65.0719216,38.5178568 Z M19.4305316,54.5237984 L15.2916305,54.5237984 L15.2916305,52.0364562 L26.6059162,52.0364562 L26.6059162,54.5237984 L22.4670151,54.5237984 L22.4670151,65.4907161 L19.4305316,65.4907161 L19.4305316,54.5237984 Z M28.2963944,60.6290928 C28.2963944,61.0185272 28.3350752,61.398534 28.4124384,61.7691247 C28.4898015,62.1397154 28.6219615,62.4726139 28.8089219,62.7678302 C28.9958823,63.0630466 29.2440852,63.298588 29.5535373,63.4744615 C29.8629894,63.6503351 30.2497989,63.7382705 30.7139769,63.7382705 C31.1781547,63.7382705 31.5681879,63.6503351 31.8840867,63.4744615 C32.1999856,63.298588 32.451412,63.0630466 32.6383724,62.7678302 C32.8253328,62.4726139 32.9574928,62.1397154 33.034856,61.7691247 C33.1122191,61.398534 33.1508999,61.0185272 33.1508999,60.6290928 C33.1508999,60.2396585 33.1122191,59.8565112 33.034856,59.4796392 C32.9574928,59.1027673 32.8253328,58.7698688 32.6383724,58.4809337 C32.451412,58.1919985 32.1999856,57.9564572 31.8840867,57.7743024 C31.5681879,57.5921476 31.1781547,57.5010716 30.7139769,57.5010716 C30.2497989,57.5010716 29.8629894,57.5921476 29.5535373,57.7743024 C29.2440852,57.9564572 28.9958823,58.1919985 28.8089219,58.4809337 C28.6219615,58.7698688 28.4898015,59.1027673 28.4124384,59.4796392 C28.3350752,59.8565112 28.2963944,60.2396585 28.2963944,60.6290928 Z M25.5500208,60.6290928 C25.5500208,59.8502242 25.6725104,59.1436 25.9174933,58.5091989 C26.1624762,57.8747979 26.5106045,57.3346229 26.9618889,56.8886578 C27.4131734,56.4426928 27.9547061,56.097232 28.5865043,55.8522653 C29.2183025,55.6072985 29.9274529,55.484817 30.7139769,55.484817 C31.5005008,55.484817 32.2128748,55.6072985 32.8511197,55.8522653 C33.4893646,56.097232 34.0341209,56.4426928 34.4854054,56.8886578 C34.9366899,57.3346229 35.2848181,57.8747979 35.529801,58.5091989 C35.7747839,59.1436 35.8972735,59.8502242 35.8972735,60.6290928 C35.8972735,61.4079614 35.7747839,62.1114452 35.529801,62.739565 C35.2848181,63.3676848 34.9366899,63.9047193 34.4854054,64.3506844 C34.0341209,64.7966494 33.4893646,65.1389696 32.8511197,65.3776551 C32.2128748,65.6163407 31.5005008,65.7356817 30.7139769,65.7356817 C29.9274529,65.7356817 29.2183025,65.6163407 28.5865043,65.3776551 C27.9547061,65.1389696 27.4131734,64.7966494 26.9618889,64.3506844 C26.5106045,63.9047193 26.1624762,63.3676848 25.9174933,62.739565 C25.6725104,62.1114452 25.5500208,61.4079614 25.5500208,60.6290928 Z M38.0325869,52.0364562 L38.0325869,65.4907161 L40.7789604,65.4907161 L40.7789604,62.136573 L41.842697,61.1378674 L44.5890708,65.4907161 L47.9156636,65.4907161 L43.7187405,59.3288912 L47.4901694,55.748626 L44.2409387,55.748626 L40.7789604,59.2535172 L40.7789604,52.0364562 L38.0325869,52.0364562 Z M55.7177904,59.5738567 C55.5888517,58.8954873 55.3599893,58.3804368 55.0311967,58.0286897 C54.7024041,57.6769425 54.202775,57.5010716 53.5322962,57.5010716 C53.0939052,57.5010716 52.7296599,57.5733043 52.4395487,57.7177719 C52.1494367,57.8622395 51.9173522,58.0412509 51.7432845,58.2548117 C51.5692176,58.4683724 51.4467282,58.6944922 51.3758121,58.9331777 C51.304896,59.1718633 51.2629916,59.3854208 51.2500981,59.5738567 L55.7177904,59.5738567 Z M51.2500981,61.2697719 C51.2887795,62.1365773 51.5144181,62.7646877 51.9270211,63.154122 C52.3396234,63.5435563 52.9327319,63.7382705 53.7063614,63.7382705 C54.2607967,63.7382705 54.7378617,63.6032268 55.1375705,63.3331353 C55.53728,63.0630438 55.7822589,62.7772535 55.8725153,62.475756 L58.2900981,62.475756 C57.9032829,63.6440589 57.3101752,64.4794457 56.5107577,64.9819417 C55.7113395,65.4844375 54.7443167,65.7356817 53.6096583,65.7356817 C52.8231344,65.7356817 52.113984,65.6132002 51.4821858,65.3682334 C50.8503877,65.1232667 50.3153017,64.7746654 49.8769116,64.3224191 C49.4385206,63.8701728 49.1000632,63.3299979 48.861527,62.701878 C48.6229908,62.0737581 48.5037243,61.3828367 48.5037243,60.6290928 C48.5037243,59.9004738 48.6262137,59.2221145 48.8711967,58.5939947 C49.1161797,57.9658748 49.4643077,57.4225593 49.9155922,56.9640318 C50.3668767,56.5055044 50.9051865,56.1443408 51.5305378,55.8805305 C52.1558884,55.6167202 52.8489214,55.484817 53.6096583,55.484817 C54.4606515,55.484817 55.2020357,55.6449851 55.8338347,55.9653263 C56.4656328,56.2856674 56.9846014,56.715923 57.3907577,57.2561061 C57.7969132,57.7962892 58.0902433,58.4118374 58.2707577,59.1027692 C58.4512714,59.7937011 58.5157391,60.5160281 58.4641641,61.2697719 L51.2500981,61.2697719 Z M60.1933235,55.748626 L60.1933235,65.4907161 L62.9396972,65.4907161 L62.9396972,60.3841273 C62.9396972,59.391698 63.1073141,58.6787926 63.4425543,58.2453899 C63.7777945,57.8119872 64.3193272,57.5952891 65.0671696,57.5952891 C65.7247549,57.5952891 66.1824796,57.7931439 66.4403561,58.1888594 C66.6982334,58.5845749 66.8271696,59.1844204 66.8271696,59.9884138 L66.8271696,65.4907161 L69.5735434,65.4907161 L69.5735434,59.4984828 C69.5735434,58.8954877 69.5187454,58.3458911 69.4091479,57.8496764 C69.2995495,57.3534617 69.1093686,56.9326277 68.8385986,56.5871618 C68.5678277,56.2416959 68.1971356,55.9716084 67.7265099,55.7768912 C67.2558851,55.5821741 66.6531077,55.484817 65.9181588,55.484817 C65.3379356,55.484817 64.7706158,55.6135796 64.2161805,55.8711088 C63.6617452,56.1286379 63.2104681,56.5400502 62.8623344,57.1053581 L62.8043126,57.1053581 L62.8043126,55.748626 L60.1933235,55.748626 Z M73.8943508,62.3250079 L71.2833616,62.3250079 C71.3091495,62.9782526 71.4606498,63.5215681 71.7378675,63.9549708 C72.0150851,64.3883736 72.3696607,64.7369748 72.8016041,65.0007851 C73.2335475,65.2645955 73.726729,65.4530286 74.2811643,65.5660902 C74.8355996,65.6791518 75.4029194,65.7356817 75.9831426,65.7356817 C76.5504714,65.7356817 77.1081206,65.6822923 77.6561091,65.575512 C78.2040976,65.4687316 78.6908324,65.283439 79.116329,65.0196286 C79.5418256,64.7558183 79.8867307,64.4072171 80.1510539,63.9738143 C80.4153781,63.5404116 80.5475381,63.0033772 80.5475381,62.362695 C80.5475381,61.9104487 80.4572825,61.5304418 80.2767688,61.2226631 C80.0962552,60.9148843 79.8577223,60.6573591 79.5611643,60.4500796 C79.2646064,60.2428001 78.9261473,60.0763508 78.5457797,59.9507268 C78.1654113,59.8251029 77.7753789,59.718324 77.3756693,59.6303873 C76.9888542,59.5424505 76.6084923,59.4607961 76.2345707,59.3854218 C75.8606498,59.3100474 75.5286384,59.2252524 75.2385272,59.1310345 C74.9484152,59.0368165 74.7131069,58.914335 74.5325924,58.7635862 C74.3520788,58.6128374 74.2618232,58.4181232 74.2618232,58.1794377 C74.2618232,57.9784393 74.3133982,57.8182712 74.4165489,57.6989284 C74.5196997,57.5795856 74.6454129,57.4885096 74.7936919,57.4256976 C74.9419709,57.3628857 75.1063647,57.3220585 75.2868784,57.3032149 C75.467392,57.2843712 75.6350096,57.2749496 75.7897354,57.2749496 C76.2797013,57.2749496 76.7051922,57.3660256 77.0662195,57.5481804 C77.4272468,57.7303352 77.6270983,58.0789364 77.6657797,58.5939947 L80.2767688,58.5939947 C80.225193,57.9909996 80.0672459,57.4916519 79.8029227,57.0959363 C79.5385986,56.7002208 79.2065879,56.3830251 78.8068784,56.1443395 C78.4071696,55.905654 77.9526687,55.7360642 77.4433616,55.635565 C76.9340554,55.5350658 76.4086392,55.484817 75.8670983,55.484817 C75.3255573,55.484817 74.7969182,55.5319253 74.2811643,55.6261432 C73.7654105,55.7203612 73.3012398,55.8836699 72.8886367,56.1160743 C72.4760345,56.3484786 72.1440222,56.6656744 71.8925924,57.0676711 C71.6411635,57.4696678 71.5154503,57.9847183 71.5154503,58.6128382 C71.5154503,59.0399597 71.6057058,59.4011232 71.7862195,59.6963395 C71.9667331,59.9915559 72.2052652,60.236519 72.5018232,60.4312361 C72.7983819,60.6259532 73.1368402,60.7829808 73.5172078,60.9023236 C73.8975762,61.0216664 74.2876094,61.1253046 74.6873182,61.2132414 C75.6672501,61.4142397 76.4311975,61.6152351 76.9791861,61.8162334 C77.5271746,62.0172318 77.8011643,62.3187248 77.8011643,62.7207215 C77.8011643,62.959407 77.7431426,63.1572618 77.6270983,63.3142918 C77.5110539,63.4713218 77.3660004,63.5969438 77.1919335,63.6911618 C77.0178667,63.7853798 76.8244619,63.8544719 76.6117136,63.8984403 C76.3989653,63.9424087 76.1958909,63.9643925 76.0024829,63.9643925 C75.731712,63.9643925 75.4706158,63.9329871 75.2191861,63.8701751 C74.9677563,63.8073631 74.7453407,63.710006 74.5519335,63.5781008 C74.3585255,63.4461956 74.2005793,63.2766058 74.0780874,63.0693263 C73.9555963,62.8620467 73.8943508,62.6139431 73.8943508,62.3250079 Z" id="Shape" fill="#1D1E38" fill-rule="nonzero"></path>
        <ellipse id="Oval" fill="#0055FF" cx="89.3261063" cy="55.5596817" rx="4.44312445" ry="4.32891247"></ellipse>
    </g>
</svg>
