<?xml version="1.0" encoding="UTF-8"?>
<svg viewBox="0 0 100 100" version="1.1" xmlns="http://www.w3.org/2000/svg" xmlns:xlink="http://www.w3.org/1999/xlink">
    <title>Miners Reward Token</title>
    <defs>
        <path d="M77.8958314,43.8644126 C75.1671922,62.7158348 58.9423746,77.1983488 39.3349845,77.1983488 C31.9925715,77.1983488 25.1244934,75.1674794 19.2618341,71.6368243 L62.9188854,27.979773 L77.8958314,43.8644126 Z M5.05577316,56.7745889 C2.06733738,51.2610974 0.370278638,44.9455548 0.370278638,38.2336429 C0.370278638,20.5154746 12.1963918,5.55944297 28.3857952,0.828371013 L48.5634675,14.1370485 L5.05577316,56.7745889 Z" id="path-1"></path>
        <path d="M97.5073028,62.3144674 C85.8459125,48.8830966 75.7741284,38.1555703 67.2919505,30.1318885 C59.3605285,22.6291921 51.1982307,16.3842619 42.8050569,11.3970979 L42.8050486,11.397112 C41.8554561,10.8328709 41.5430671,9.60566639 42.1073082,8.65607395 C42.1835427,8.52777461 42.273898,8.4084111 42.3766866,8.30021255 L49.058711,1.26649072 C49.795183,0.491257081 51.0111626,0.432444206 51.8190128,1.13298414 C55.7296072,4.52411721 58.4946834,7.0127097 60.1142415,8.59876161 C68.3954298,16.7086249 73.7666435,22.9281258 77.0331269,26.5430341 C83.6023875,33.8130157 85.8711308,37.6555855 88.8250774,41.923839 C94.1420563,49.6065147 98.5662539,58.8427245 98.5662539,61.9188854 C98.5662539,61.9188854 98.5662539,61.9188854 98.5662539,61.9188854 L98.5662539,61.9188854 C98.5662539,62.2520939 98.2961351,62.5222127 97.9629266,62.5222127 C97.7881384,62.5222127 97.6219405,62.446411 97.5073493,62.314427 Z" id="path-3"></path>
    </defs>
    <g id="Miners-Reward-Token" stroke="none" stroke-width="1" fill="none" fill-rule="evenodd">
        <circle id="zone" fill="#D8D8D8" fill-rule="nonzero" opacity="0" cx="50" cy="50" r="50"></circle>
        <g id="Group-4" transform="translate(9.500000, 13.431373)">
            <mask id="mask-2" fill="white">
                <use xlink:href="#path-1"></use>
            </mask>
            <use id="Oval" fill="#3D3D3D" fill-rule="nonzero" xlink:href="#path-1"></use>
            <path d="M10.0251255,19.3480778 C6.51126366,24.7902553 4.47182663,31.2737811 4.47182663,38.2336429 C4.47182663,38.5574992 4.48169823,39.0408991 4.50144145,39.6838424 L20.8780186,68.4825593 C22.5869969,69.5079463 24.4668731,70.3624355 26.5176471,71.0460268 C29.593808,72.0714138 35.3933248,73.0968008 39.3349845,73.0968008 C39.8136955,73.0968008 40.2901529,73.0871524 40.764173,73.0680394 M55.692738,69.0288727 C60.26433,66.5954813 64.229987,63.1738928 67.3047141,59.049102 C67.3310108,59.0138245 67.3703091,58.9607928 67.4226089,58.8900068 L35.8388306,3.54360092 C35.7434109,3.55325061 35.6718783,3.56059596 35.6242327,3.56563697 C30.3039656,4.12853297 25.3407193,5.88810472 21.0087144,8.57013165" id="Shape" fill="#F3CE00" fill-rule="nonzero" mask="url(#mask-2)"></path>
        </g>
        <path d="M66.1915244,26.1053753 C66.9019621,26.7539676 67.6105664,27.4125473 68.3173375,28.0811146 C70.0685209,29.7376394 71.8874588,31.5094115 73.7741512,33.3964306 L19.6006272,87.6038422 C19.0271424,88.1776857 18.101332,88.1915645 17.5109039,87.6351691 L12.0201972,82.4609511 C11.4172926,81.8927983 11.3891206,80.9434688 11.9572733,80.3405642 C11.9674466,80.3297686 11.9777795,80.3191245 11.9882685,80.3086355 L66.1915349,26.1053691 Z M73.205544,19.09136 L73.9576369,18.3392672 C74.5291961,17.7677079 75.4508574,17.7518219 76.0417744,18.3033444 L81.5380626,23.4332134 C82.1436886,23.9984644 82.1764191,24.9476477 81.6111681,25.5532737 C81.5995151,25.5657591 81.5876496,25.5780446 81.575577,25.5901248 L80.2241504,26.9423968 C79.5572932,26.1696698 78.8381929,25.3551048 78.0585139,24.4922601 C76.7796046,23.0769337 75.1780575,21.2623449 73.205544,19.09136 Z" id="Rectangle-2" fill="#1E2A53" fill-rule="nonzero"></path>
        <mask id="mask-4" fill="white">
            <use xlink:href="#path-3"></use>
        </mask>
        <use id="Path-3" fill="#00599F" fill-rule="nonzero" xlink:href="#path-3"></use>
        <path d="M67,32.5 L42.1801377,10.4847539 C41.3537981,9.75178967 41.2781023,8.48772412 42.0110665,7.66138446 C42.0261858,7.64433914 42.0415952,7.62755342 42.057288,7.61103466 L49.058711,0.241103727 C49.795183,-0.534129916 51.0111626,-0.592942791 51.8190128,0.107597144 C55.7296072,3.49873021 58.4946834,5.9873227 60.1142415,7.57337461 C64.8826273,12.2431099 70.0373077,17.6840982 75.5782824,23.8963395 L67,32.5 Z" id="Path-3" fill="#0069B7" fill-rule="nonzero" mask="url(#mask-4)"></path>
    </g>
</svg>
