<?xml version="1.0" encoding="UTF-8"?>
<svg width="100px" height="100px" viewBox="0 0 100 100" version="1.1" xmlns="http://www.w3.org/2000/svg" xmlns:xlink="http://www.w3.org/1999/xlink">
    <!-- Generator: Sketch 52.5 (67469) - http://www.bohemiancoding.com/sketch -->
    <title>Miners' Reward Token</title>
    <desc>Created with Sketch.</desc>
    <defs>
        <path d="M77.8958314,43.8644126 C75.1671922,62.7158348 58.9423746,77.1983488 39.3349845,77.1983488 C31.9925715,77.1983488 25.1244934,75.1674794 19.2618341,71.6368243 L62.9188854,27.979773 L77.8958314,43.8644126 Z M5.05577316,56.7745889 C2.06733738,51.2610974 0.370278638,44.9455548 0.370278638,38.2336429 C0.370278638,20.5154746 12.1963918,5.55944297 28.3857952,0.828371013 L48.5634675,14.1370485 L5.05577316,56.7745889 Z" id="path-1"></path>
        <path d="M56.8754142,62.9441887 C45.2140239,49.512818 35.1422398,38.7852917 26.6600619,30.7616099 C18.72864,23.2589135 10.5663422,17.0139833 2.17316838,12.0268192 L2.17316001,12.0268333 C1.22356757,11.4625923 0.911178558,10.2353877 1.47541962,9.28579531 C1.55165417,9.15749597 1.64200945,9.03813246 1.74479808,8.92993391 L8.42682249,1.89621209 C9.16329445,1.12097844 10.3792741,1.06216557 11.1871243,1.7627055 C15.0977186,5.15383857 17.8627949,7.64243106 19.4823529,9.22848297 C27.7635412,17.3383463 33.134755,23.5578471 36.4012384,27.1727554 C42.9704989,34.4427371 45.2392423,38.2853069 48.1931889,42.5535604 C53.5101677,50.236236 57.9343653,59.4724458 57.9343653,62.5486068 C57.9343653,62.5486068 57.9343653,62.5486068 57.9343653,62.5486068 L57.9343653,62.5486068 C57.9343653,62.8818152 57.6642465,63.151934 57.3310381,63.151934 C57.1562499,63.151934 56.990052,63.0761323 56.8754608,62.9441483 Z" id="path-3"></path>
    </defs>
    <g id="Miners'-Reward-Token" stroke="none" stroke-width="1" fill="none" fill-rule="evenodd">
        <circle id="zone" fill="#D8D8D8" fill-rule="nonzero" opacity="0" cx="50" cy="50" r="50"></circle>
        <g id="Group-4" transform="translate(9.500000, 13.431373)">
            <mask id="mask-2" fill="white">
                <use xlink:href="#path-1"></use>
            </mask>
            <use id="Oval" fill="#3D3D3D" fill-rule="nonzero" xlink:href="#path-1"></use>
            <path d="M10.0251255,19.3480778 C6.51126366,24.7902553 4.47182663,31.2737811 4.47182663,38.2336429 C4.47182663,38.5574992 4.48169823,39.0408991 4.50144145,39.6838424 L20.8780186,68.4825593 C22.5869969,69.5079463 24.4668731,70.3624355 26.5176471,71.0460268 C29.593808,72.0714138 35.3933248,73.0968008 39.3349845,73.0968008 C39.8136955,73.0968008 40.2901529,73.0871524 40.764173,73.0680394 M55.692738,69.0288727 C60.26433,66.5954813 64.229987,63.1738928 67.3047141,59.049102 C67.3310108,59.0138245 67.3703091,58.9607928 67.4226089,58.8900068 L35.8388306,3.54360092 C35.7434109,3.55325061 35.6718783,3.56059596 35.6242327,3.56563697 C30.3039656,4.12853297 25.3407193,5.88810472 21.0087144,8.57013165" id="Shape" fill="#F3CE00" fill-rule="nonzero" mask="url(#mask-2)"></path>
        </g>
        <path d="M66.1915244,26.1053753 C66.9019621,26.7539676 67.6105664,27.4125473 68.3173375,28.0811146 C70.0685209,29.7376394 71.8874588,31.5094115 73.7741512,33.3964306 L19.6006272,87.6038422 C19.0271424,88.1776857 18.101332,88.1915645 17.5109039,87.6351691 L12.0201972,82.4609511 C11.4172926,81.8927983 11.3891206,80.9434688 11.9572733,80.3405642 C11.9674466,80.3297686 11.9777795,80.3191245 11.9882685,80.3086355 L66.1915349,26.1053691 Z M73.205544,19.09136 L73.9576369,18.3392672 C74.5291961,17.7677079 75.4508574,17.7518219 76.0417744,18.3033444 L81.5380626,23.4332134 C82.1436886,23.9984644 82.1764191,24.9476477 81.6111681,25.5532737 C81.5995151,25.5657591 81.5876496,25.5780446 81.575577,25.5901248 L80.2241504,26.9423968 C79.5572932,26.1696698 78.8381929,25.3551048 78.0585139,24.4922601 C76.7796046,23.0769337 75.1780575,21.2623449 73.205544,19.09136 Z" id="Rectangle-2" fill="#1E2A53" fill-rule="nonzero"></path>
        <g id="Group-3" transform="translate(40.631889, -0.629721)">
            <mask id="mask-4" fill="white">
                <use xlink:href="#path-3"></use>
            </mask>
            <use id="Path-3" fill="#00599F" fill-rule="nonzero" xlink:href="#path-3"></use>
            <path d="M27.1727554,33.4091717 L1.57471155,11.1127807 C0.741797302,10.3872963 0.65470821,9.12396453 1.38019262,8.29105028 C1.39910567,8.26933659 1.41848545,8.24803389 1.43831841,8.22715709 L8.42682249,0.870825089 C9.16329445,0.0955914461 10.3792741,0.0367785714 11.1871243,0.737318506 C15.0977186,4.12845157 17.8627949,6.61704406 19.4823529,8.20309598 C24.2507388,12.8728313 29.4054191,18.3138196 34.9463939,24.5260609 L27.1727554,33.4091717 Z" id="Path-3" fill="#0069B7" fill-rule="nonzero" mask="url(#mask-4)"></path>
        </g>
    </g>
</svg>