<?xml version="1.0" encoding="UTF-8"?>
<svg width="100px" height="100px" viewBox="0 0 100 100" version="1.1" xmlns="http://www.w3.org/2000/svg" xmlns:xlink="http://www.w3.org/1999/xlink">
    <!-- Generator: Sketch 52.5 (67469) - http://www.bohemiancoding.com/sketch -->
    <title>Primalbase</title>
    <desc>Created with Sketch.</desc>
    <g id="Primalbase" stroke="none" stroke-width="1" fill="none" fill-rule="evenodd">
        <circle id="zone" fill="#D8D8D8" fill-rule="nonzero" opacity="0" cx="50" cy="50" r="50"></circle>
        <path d="M15,85 L15,36.1246875 C15,33.80375 15.9209375,31.5790625 17.5615625,29.9384375 L29.9384375,17.5615625 C31.5790625,15.9209375 33.80375,15 36.1246875,15 L85,15 L85,85 L15,85 Z M41.25,36.875 C41.25,34.46 39.2921875,32.5 36.875,32.5 C34.46,32.5 32.5,34.46 32.5,36.875 C32.5,39.29 34.46,41.25 36.875,41.25 C39.2921875,41.25 41.25,39.29 41.25,36.875 Z M80.625,76.25 C80.625,73.835 78.6671875,71.8749999 76.25,71.8749999 C73.8350001,71.8749999 71.875,73.835 71.875,76.25 C71.875,78.6650001 73.8350001,80.6249999 76.25,80.6249999 C78.6671875,80.6249999 80.625,78.6650001 80.625,76.25 Z M80.625,63.1249999 C80.625,60.7099999 78.6671875,58.7500001 76.25,58.7500001 C73.8350001,58.7500001 71.875,60.7099999 71.875,63.1249999 C71.875,65.5399999 73.8350001,67.5000001 76.25,67.5000001 C78.6671875,67.5000001 80.625,65.5399999 80.625,63.1249999 Z M80.625,50.0000001 C80.625,47.5850001 78.6671875,45.625 76.25,45.625 C73.8350001,45.625 71.875,47.5850001 71.875,50.0000001 C71.875,52.4150001 73.8350001,54.3749999 76.25,54.3749999 C78.6671875,54.3749999 80.625,52.4150001 80.625,50.0000001 Z M28.125,36.875 C28.125,34.46 26.1671875,32.5 23.75,32.5 C21.335,32.5 19.375,34.46 19.375,36.875 C19.375,39.29 21.335,41.25 23.75,41.25 C26.1671875,41.25 28.125,39.29 28.125,36.875 Z M67.5,63.1249999 C67.5,60.7099999 65.5421874,58.7500001 63.125,58.7500001 C60.71,58.7500001 58.75,60.7099999 58.75,63.1249999 C58.75,65.5399999 60.71,67.5000001 63.125,67.5000001 C65.5421874,67.5000001 67.5,65.5399999 67.5,63.1249999 Z M67.5,76.25 C67.5,73.835 65.5421874,71.8749999 63.125,71.8749999 C60.71,71.8749999 58.75,73.835 58.75,76.25 C58.75,78.6650001 60.71,80.6249999 63.125,80.6249999 C65.5421874,80.6249999 67.5,78.6650001 67.5,76.25 Z M54.375,76.25 C54.375,73.835 52.4171874,71.8749999 50,71.8749999 C47.585,71.8749999 45.625,73.835 45.625,76.25 C45.625,78.6650001 47.585,80.6249999 50,80.6249999 C52.4171874,80.6249999 54.375,78.6650001 54.375,76.25 Z M67.5,23.7040625 C67.5,21.2890625 65.5421874,19.3290625 63.125,19.3290625 C60.71,19.3290625 58.75,21.2890625 58.75,23.7040625 C58.75,26.1190625 60.71,28.0790625 63.125,28.0790625 C65.5421874,28.0790625 67.5,26.1190625 67.5,23.7040625 Z M28.125,63.1249999 C28.125,60.7099999 26.1671875,58.7500001 23.75,58.7500001 C21.335,58.7500001 19.375,60.7099999 19.375,63.1249999 C19.375,65.5399999 21.335,67.5000001 23.75,67.5000001 C26.1671875,67.5000001 28.125,65.5399999 28.125,63.1249999 Z M41.25,63.1249999 C41.25,60.7099999 39.2921875,58.7500001 36.875,58.7500001 C34.46,58.7500001 32.5,60.7099999 32.5,63.1249999 C32.5,65.5399999 34.46,67.5000001 36.875,67.5000001 C39.2921875,67.5000001 41.25,65.5399999 41.25,63.1249999 Z" id="Combined-Shape" fill="#000000" fill-rule="nonzero"></path>
    </g>
</svg>