<?xml version="1.0" encoding="UTF-8"?>
<svg viewBox="0 0 100 100" version="1.1" xmlns="http://www.w3.org/2000/svg" xmlns:xlink="http://www.w3.org/1999/xlink">
    <title>Waves Community Token</title>
    <g id="Waves-Community-Token" stroke="none" stroke-width="1" fill="none" fill-rule="evenodd">
            <rect id="bg" fill-opacity="0" fill="#C08989" fill-rule="nonzero" x="0" y="0"></rect>
            <path d="M1.97131374,49.8112848 L12.8259189,39.0111291 C14.2265087,37.5014471 16.6775457,37.5014471 18.1948628,39.0111291 L26.4817036,47.2563982 C29.749753,50.5080453 35.1186968,50.5080453 38.5034636,47.2563982 L47.2571743,38.5466615 C48.7744914,37.0369205 51.2255185,37.0369205 52.7428356,38.5466615 L61.4965463,47.2563982 C64.7645956,50.5080453 70.2502569,50.5080453 73.5182964,47.2563982 L81.8051471,39.0111291 C83.3224543,37.5014471 85.7734913,37.5014471 87.1740811,39.0111291 L98.0286863,49.8112848 C99.5459935,51.3209669 99.5459935,53.7597022 98.0286863,55.1532919 L56.7111601,96.379529 C52.9762409,100.095713 47.0237196,100.095713 43.2888103,96.379529 L1.97131374,55.1532919 C0.45400653,53.7597022 0.45400653,51.3209669 1.97131374,49.8112848 Z" id="Combined-Shape" fill="#E2E1E1" fill-rule="evenodd"></path>
            <path d="M18.6617227,27.8626571 L42.9386678,3.70757712 C46.7902946,-0.124747928 53.2096758,-0.124747928 57.0613124,3.70757712 L81.22154,27.8626473 C83.0889897,29.6046222 83.0889897,32.5078251 81.22154,34.2498 L70.4836523,45.0499557 C68.7329102,46.7918617 65.8150132,46.7918617 63.9475536,45.0499557 L55.4272779,36.4563015 C52.3926635,33.4368882 47.607297,33.4368882 44.5726826,36.4563015 L35.9356894,45.0499557 C34.1849472,46.7918617 31.2670404,46.7918617 29.3995907,45.0499557 L18.6617227,34.2498 C16.9109806,32.507835 16.9109806,29.6046222 18.6617227,27.8626571 Z" id="Shape" fill="#3DB6D3" fill-rule="evenodd"></path>
    </g>
</svg>
